# xmcd CD database file
#
# Track frame offsets:
#	150
#	2635
#	26625
#	48862
#	69230
#	92325
#	122955
#	142372
#	165980
#	176465
#	202852
#	221180
#
# Disc length: 3428 seconds
#
# Revision: 2
# Processed by: cddbd v1.5.2PL0 Copyright (c) Steve Scherf et al.
# Submitted via: CDex 1.70beta2
#
DISCID=9e0d620c
DTITLE=Larry Norman - A Moment in Time
DYEAR=1994
DGENRE=Christian Rock
TTITLE0=Radio Spot
TTITLE1=Down the Line
TTITLE2=Long Hard Road
TTITLE3=When the Son Comes Back
TTITLE4=Elvis Has Left the Building
TTITLE5=Lay My Burden Down
TTITLE6=Toxic Tea and Toast
TTITLE7=You Shall Be Saved
TTITLE8=The Children of Nimrod
TTITLE9=The Solid Rock
TTITLE10=Leave It Up to God to Handle
TTITLE11=Right Here in America
EXTD=YEAR: 1994
EXTT0=
EXTT1=
EXTT2=
EXTT3=
EXTT4=
EXTT5=
EXTT6=
EXTT7=
EXTT8=
EXTT9=
EXTT10=
EXTT11=
PLAYORDER=
